<svg xmlns="http://www.w3.org/2000/svg" viewBox="0 0 200 200">
  <defs>
    <linearGradient id="bgm" x1="0" y1="0" x2="1" y2="1">
      <stop offset="0" stop-color="#0A2A33"/>
      <stop offset="1" stop-color="#26343F"/>
    </linearGradient>
  </defs>
  <rect width="200" height="200" fill="url(#bgm)"/>
  <!-- ハート（サポート） -->
  <path d="M 150 52 c -5 -9 -19 -7 -20 3 c -1 -10 -15 -12 -20 -3 c -4 8 3 15 20 26 c 17 -11 24 -18 20 -26 z" fill="#C76B6B"/>
  <!-- 母（両手を広げてサポート） -->
  <g stroke="#E8F4F8" stroke-width="10" stroke-linecap="round" fill="none">
    <!-- 右腕（ハートへ） -->
    <path d="M 92 100 L 122 84"/>
    <!-- 左腕 -->
    <path d="M 88 102 L 58 90"/>
    <!-- 胴体 -->
    <path d="M 88 96 L 88 138"/>
    <!-- 右脚 -->
    <path d="M 88 138 L 102 176"/>
    <!-- 左脚 -->
    <path d="M 88 138 L 74 176"/>
  </g>
  <!-- 頭（ボブヘア） -->
  <circle cx="88" cy="72" r="14" fill="#E8F4F8"/>
  <path d="M 74 76 Q 72 60 88 58 Q 104 60 102 76" stroke="#C76B6B" stroke-width="6" stroke-linecap="round" fill="none"/>
</svg>
